<?xml version="1.0" encoding="UTF-8"?> <svg xmlns="http://www.w3.org/2000/svg" xmlns:xlink="http://www.w3.org/1999/xlink" id="Layer_1" data-name="Layer 1" viewBox="0 0 223.35 62.62"><defs><style>.cls-1{fill:#4b9ad4;}.cls-2{fill:url(#radial-gradient);}</style><radialGradient id="radial-gradient" cx="30.67" cy="44.45" r="30.13" gradientUnits="userSpaceOnUse"><stop offset="0" stop-color="#77bbe7"></stop><stop offset="1" stop-color="#2668b2"></stop></radialGradient></defs><title>OptimumLap-logo-vector</title><path class="cls-1" d="M95.45,30.74a12.62,12.62,0,0,1-.53,3.79,7.6,7.6,0,0,1-1.57,2.84,6.57,6.57,0,0,1-2.58,1.78,9.49,9.49,0,0,1-3.55.62,10.6,10.6,0,0,1-3.47-.52,6.1,6.1,0,0,1-2.48-1.59,6.79,6.79,0,0,1-1.48-2.72A13.66,13.66,0,0,1,79.3,31a12.25,12.25,0,0,1,.52-3.72,7.73,7.73,0,0,1,1.57-2.82A6.94,6.94,0,0,1,84,22.72a9.53,9.53,0,0,1,3.57-.62,10.24,10.24,0,0,1,3.42.52,6,6,0,0,1,2.48,1.58,7,7,0,0,1,1.5,2.69A13,13,0,0,1,95.45,30.74Zm-3.64.18a13,13,0,0,0-.21-2.44,5.18,5.18,0,0,0-.72-1.89,3.43,3.43,0,0,0-1.35-1.21A4.61,4.61,0,0,0,87.42,25a4.32,4.32,0,0,0-2.14.48,3.88,3.88,0,0,0-1.38,1.29,5.4,5.4,0,0,0-.75,1.87,11.92,11.92,0,0,0-.22,2.28,13.55,13.55,0,0,0,.22,2.51,5.22,5.22,0,0,0,.71,1.9,3.26,3.26,0,0,0,1.34,1.21,4.74,4.74,0,0,0,2.12.42,4.32,4.32,0,0,0,2.14-.48,3.8,3.8,0,0,0,1.38-1.29,5.42,5.42,0,0,0,.75-1.91A12.08,12.08,0,0,0,91.81,30.92Z"></path><path class="cls-1" d="M110,33a10.71,10.71,0,0,1-.34,2.83,6.21,6.21,0,0,1-1,2.14,4.23,4.23,0,0,1-1.61,1.36,4.85,4.85,0,0,1-2.2.48,4.59,4.59,0,0,1-.94-.1,4.12,4.12,0,0,1-.83-.3,5.94,5.94,0,0,1-.8-.51c-.26-.2-.53-.44-.82-.71v5.53a.35.35,0,0,1-.08.24.58.58,0,0,1-.27.18,2.22,2.22,0,0,1-.5.11,6,6,0,0,1-.81,0,6,6,0,0,1-.8,0,2.47,2.47,0,0,1-.51-.11.58.58,0,0,1-.27-.18.41.41,0,0,1-.08-.24V27.26a.35.35,0,0,1,.07-.23.42.42,0,0,1,.23-.17,1.82,1.82,0,0,1,.43-.1,6.39,6.39,0,0,1,.68,0,6.19,6.19,0,0,1,.67,0,1.82,1.82,0,0,1,.43.1.42.42,0,0,1,.23.17.35.35,0,0,1,.07.23v1.38a12.06,12.06,0,0,1,1-.93,5.7,5.7,0,0,1,1-.67,4.13,4.13,0,0,1,1.06-.4,4.82,4.82,0,0,1,1.17-.13,4.44,4.44,0,0,1,2.2.5,4.19,4.19,0,0,1,1.48,1.39,6.46,6.46,0,0,1,.84,2.06A11.76,11.76,0,0,1,110,33Zm-3.45.24a8.39,8.39,0,0,0-.12-1.44,4.12,4.12,0,0,0-.38-1.23,2.45,2.45,0,0,0-.71-.87,1.84,1.84,0,0,0-1.1-.32,2.05,2.05,0,0,0-.65.1,2.23,2.23,0,0,0-.66.32,3.94,3.94,0,0,0-.69.58,9.13,9.13,0,0,0-.76.88V35.1a8,8,0,0,0,1.34,1.37,2.14,2.14,0,0,0,1.31.48,1.87,1.87,0,0,0,1.11-.33,2.52,2.52,0,0,0,.74-.87,4.25,4.25,0,0,0,.43-1.2A6.88,6.88,0,0,0,106.55,33.2Z"></path><path class="cls-1" d="M124,26.81a1,1,0,0,1,.77.24,1,1,0,0,1,.22.68V39a.4.4,0,0,1-.08.23.62.62,0,0,1-.27.16,1.82,1.82,0,0,1-.5.1c-.22,0-.48,0-.8,0s-.6,0-.81,0a1.83,1.83,0,0,1-.51-.1.58.58,0,0,1-.26-.16.34.34,0,0,1-.08-.23V29.5h-5.29V35a2.83,2.83,0,0,0,.3,1.45,1.2,1.2,0,0,0,1.09.48,2.26,2.26,0,0,0,.47-.05,2.9,2.9,0,0,0,.38-.11,2,2,0,0,0,.27-.1.63.63,0,0,1,.21,0,.3.3,0,0,1,.15,0,.31.31,0,0,1,.11.18,2.38,2.38,0,0,1,.07.38,4.77,4.77,0,0,1,0,.61,4.58,4.58,0,0,1-.07.87,1.08,1.08,0,0,1-.18.44.9.9,0,0,1-.36.23,3.23,3.23,0,0,1-.55.18l-.67.11c-.24,0-.49,0-.73,0a5.52,5.52,0,0,1-1.72-.25,3,3,0,0,1-1.2-.77,3.32,3.32,0,0,1-.69-1.32,6.83,6.83,0,0,1-.23-1.87v-6H111.7c-.17,0-.29-.11-.38-.31a2.87,2.87,0,0,1-.13-1,5.72,5.72,0,0,1,0-.64,1.62,1.62,0,0,1,.1-.42.55.55,0,0,1,.16-.22.46.46,0,0,1,.23-.06h1.4V24.18a.48.48,0,0,1,.07-.23.58.58,0,0,1,.27-.18,2.47,2.47,0,0,1,.51-.11c.22,0,.48,0,.8,0s.6,0,.81,0a2.2,2.2,0,0,1,.51.11.6.6,0,0,1,.26.18.4.4,0,0,1,.08.23v2.63Zm1.25-3.54a1.89,1.89,0,0,1-.41,1.39,2.27,2.27,0,0,1-1.51.38,2.22,2.22,0,0,1-1.51-.37,1.79,1.79,0,0,1-.39-1.33,1.89,1.89,0,0,1,.4-1.39,3.15,3.15,0,0,1,3,0A1.76,1.76,0,0,1,125.28,23.27Z"></path><path class="cls-1" d="M147.06,39a.4.4,0,0,1-.08.23.58.58,0,0,1-.26.16,1.91,1.91,0,0,1-.5.1q-.32,0-.81,0c-.33,0-.6,0-.82,0a1.82,1.82,0,0,1-.5-.1.57.57,0,0,1-.27-.16.39.39,0,0,1-.07-.23V32a5.2,5.2,0,0,0-.11-1.08,2.9,2.9,0,0,0-.34-.84,1.75,1.75,0,0,0-.58-.54,1.86,1.86,0,0,0-.84-.19,2,2,0,0,0-1.2.46,8.1,8.1,0,0,0-1.32,1.35V39a.4.4,0,0,1-.08.23.57.57,0,0,1-.27.16,2,2,0,0,1-.51.1c-.21,0-.47,0-.79,0s-.59,0-.8,0a2,2,0,0,1-.51-.1.57.57,0,0,1-.27-.16.4.4,0,0,1-.08-.23V32a5.2,5.2,0,0,0-.11-1.08,2.9,2.9,0,0,0-.34-.84,1.58,1.58,0,0,0-.58-.54,1.78,1.78,0,0,0-.83-.19,2,2,0,0,0-1.21.46,8.1,8.1,0,0,0-1.31,1.35V39a.39.39,0,0,1-.07.23.67.67,0,0,1-.28.16,1.82,1.82,0,0,1-.5.1q-.31,0-.81,0c-.32,0-.59,0-.8,0a2,2,0,0,1-.51-.1.57.57,0,0,1-.27-.16.4.4,0,0,1-.08-.23V27.26a.35.35,0,0,1,.07-.23.42.42,0,0,1,.24-.17,1.92,1.92,0,0,1,.44-.1,6.26,6.26,0,0,1,.68,0,6.47,6.47,0,0,1,.69,0,1.6,1.6,0,0,1,.43.1.44.44,0,0,1,.22.17.42.42,0,0,1,.07.23v1.35A7.89,7.89,0,0,1,133.13,27a4.19,4.19,0,0,1,2-.52,4.81,4.81,0,0,1,1.31.15,3.55,3.55,0,0,1,1,.43,3.26,3.26,0,0,1,.79.68,4,4,0,0,1,.55.88,10.16,10.16,0,0,1,1-1,6.24,6.24,0,0,1,1-.67,4.47,4.47,0,0,1,1-.38,4.23,4.23,0,0,1,1-.12,4.46,4.46,0,0,1,2,.39,3.42,3.42,0,0,1,1.3,1.07,4.42,4.42,0,0,1,.71,1.59,8.58,8.58,0,0,1,.21,1.93Z"></path><path class="cls-1" d="M161.47,39a.39.39,0,0,1-.07.23.47.47,0,0,1-.23.16,1.43,1.43,0,0,1-.43.1,6.39,6.39,0,0,1-.68,0,6.75,6.75,0,0,1-.71,0,1.29,1.29,0,0,1-.42-.1.37.37,0,0,1-.29-.39V37.66a7.54,7.54,0,0,1-2,1.58,4.47,4.47,0,0,1-2.09.53,4.61,4.61,0,0,1-2-.4,3.45,3.45,0,0,1-1.33-1.08,4.28,4.28,0,0,1-.72-1.59,9.49,9.49,0,0,1-.22-2.25V27.26a.35.35,0,0,1,.07-.23.5.5,0,0,1,.27-.17,2.28,2.28,0,0,1,.51-.1c.22,0,.48,0,.8,0s.59,0,.8,0a2.55,2.55,0,0,1,.51.1.5.5,0,0,1,.27.17.36.36,0,0,1,.08.23V33.9a6.22,6.22,0,0,0,.12,1.41,2.48,2.48,0,0,0,.36.84,1.7,1.7,0,0,0,.62.54,1.87,1.87,0,0,0,.88.19,2.16,2.16,0,0,0,1.27-.46,7.46,7.46,0,0,0,1.36-1.35V27.26a.36.36,0,0,1,.08-.23.44.44,0,0,1,.26-.17,2.55,2.55,0,0,1,.51-.1c.21,0,.48,0,.8,0s.59,0,.81,0a2.43,2.43,0,0,1,.5.1.51.51,0,0,1,.26.17.36.36,0,0,1,.08.23Z"></path><path class="cls-1" d="M183.51,39a.34.34,0,0,1-.08.23.58.58,0,0,1-.26.16,1.82,1.82,0,0,1-.5.1q-.31,0-.81,0t-.81,0a2,2,0,0,1-.51-.1.48.48,0,0,1-.26-.16.4.4,0,0,1-.08-.23V32a4.6,4.6,0,0,0-.11-1.08,2.64,2.64,0,0,0-.34-.84,1.75,1.75,0,0,0-.58-.54,1.8,1.8,0,0,0-.84-.19,2.06,2.06,0,0,0-1.2.46,8.51,8.51,0,0,0-1.32,1.35V39a.34.34,0,0,1-.08.23.57.57,0,0,1-.27.16,1.82,1.82,0,0,1-.5.1c-.21,0-.48,0-.79,0s-.6,0-.81,0a2,2,0,0,1-.51-.1.69.69,0,0,1-.27-.16.4.4,0,0,1-.08-.23V32a4.6,4.6,0,0,0-.11-1.08,2.63,2.63,0,0,0-.33-.84,1.66,1.66,0,0,0-.58-.54,1.85,1.85,0,0,0-.83-.19,2.06,2.06,0,0,0-1.22.46,7.71,7.71,0,0,0-1.3,1.35V39a.4.4,0,0,1-.08.23.62.62,0,0,1-.27.16,2,2,0,0,1-.51.1c-.21,0-.48,0-.8,0s-.6,0-.81,0a2,2,0,0,1-.51-.1.69.69,0,0,1-.27-.16.39.39,0,0,1-.07-.23V27.26a.39.39,0,0,1,.3-.4,1.92,1.92,0,0,1,.44-.1,6.39,6.39,0,0,1,.68,0,6.81,6.81,0,0,1,.7,0,1.82,1.82,0,0,1,.43.1.41.41,0,0,1,.21.17.35.35,0,0,1,.07.23v1.35A7.89,7.89,0,0,1,169.58,27a4.2,4.2,0,0,1,2-.52,4.74,4.74,0,0,1,1.3.15,3.61,3.61,0,0,1,1,.43,3.41,3.41,0,0,1,.78.68,4,4,0,0,1,.56.88,10.11,10.11,0,0,1,1-1,6.24,6.24,0,0,1,1-.67,4.47,4.47,0,0,1,1-.38,4.29,4.29,0,0,1,1-.12,4.54,4.54,0,0,1,2,.39A3.5,3.5,0,0,1,182.6,28a4.41,4.41,0,0,1,.7,1.59,8.58,8.58,0,0,1,.21,1.93Z"></path><path class="cls-1" d="M196.34,38a6.19,6.19,0,0,1,0,.67,3.09,3.09,0,0,1-.1.45.65.65,0,0,1-.17.26.35.35,0,0,1-.23.07H188a.95.95,0,0,1-1-1.09V22.88a.35.35,0,0,1,.08-.24.57.57,0,0,1,.29-.17,3.43,3.43,0,0,1,.53-.11q.33,0,.84,0t.84,0a3.43,3.43,0,0,1,.53.11.58.58,0,0,1,.28.17.36.36,0,0,1,.09.24V36.6h5.36a.36.36,0,0,1,.23.08.48.48,0,0,1,.17.23,2.66,2.66,0,0,1,.1.44A6.12,6.12,0,0,1,196.34,38Z"></path><path class="cls-1" d="M208.21,39.06a.32.32,0,0,1-.14.28.75.75,0,0,1-.41.16,9.05,9.05,0,0,1-1.7,0,.64.64,0,0,1-.38-.16.34.34,0,0,1-.12-.28v-.94a5.25,5.25,0,0,1-1.65,1.21,4.82,4.82,0,0,1-2.06.44,5.5,5.5,0,0,1-1.72-.25,3.77,3.77,0,0,1-1.36-.72,3.15,3.15,0,0,1-.89-1.2,4,4,0,0,1-.32-1.66,3.71,3.71,0,0,1,.4-1.78,3.19,3.19,0,0,1,1.2-1.25,6,6,0,0,1,2-.74,14.06,14.06,0,0,1,2.75-.23H205v-.72a3.84,3.84,0,0,0-.11-1,1.74,1.74,0,0,0-.37-.7,1.57,1.57,0,0,0-.69-.41,3.93,3.93,0,0,0-1.06-.13,5.16,5.16,0,0,0-1.48.19,8.18,8.18,0,0,0-1.16.41c-.33.15-.61.28-.83.4a1.19,1.19,0,0,1-.55.19.41.41,0,0,1-.26-.09.71.71,0,0,1-.18-.27,1.42,1.42,0,0,1-.11-.42,3.16,3.16,0,0,1,0-.55,2.81,2.81,0,0,1,.06-.65,1.1,1.1,0,0,1,.25-.43,3,3,0,0,1,.65-.42,9.71,9.71,0,0,1,1.08-.43,9.56,9.56,0,0,1,1.35-.32,9.33,9.33,0,0,1,1.51-.12,9.13,9.13,0,0,1,2.37.26,4,4,0,0,1,1.61.84,3.27,3.27,0,0,1,.93,1.44,6.87,6.87,0,0,1,.29,2.1ZM205,34h-1.27a6.77,6.77,0,0,0-1.37.12,2.81,2.81,0,0,0-.92.35,1.43,1.43,0,0,0-.52.58,1.71,1.71,0,0,0-.17.77,1.49,1.49,0,0,0,.47,1.16,1.88,1.88,0,0,0,1.3.42,2.44,2.44,0,0,0,1.29-.36A5.2,5.2,0,0,0,205,36Z"></path><path class="cls-1" d="M223.35,33a11.16,11.16,0,0,1-.33,2.83,6.23,6.23,0,0,1-1,2.14,4.27,4.27,0,0,1-1.6,1.36,4.9,4.9,0,0,1-2.2.48,4.62,4.62,0,0,1-.95-.1,4.35,4.35,0,0,1-.83-.3,5.94,5.94,0,0,1-.8-.51,9.79,9.79,0,0,1-.81-.71v5.53a.41.41,0,0,1-.08.24.71.71,0,0,1-.27.18,2.47,2.47,0,0,1-.51.11,6,6,0,0,1-.8,0,6,6,0,0,1-.81,0,2.47,2.47,0,0,1-.51-.11.71.71,0,0,1-.27-.18.41.41,0,0,1-.08-.24V27.26a.42.42,0,0,1,.07-.23.42.42,0,0,1,.23-.17,1.92,1.92,0,0,1,.44-.1,6.26,6.26,0,0,1,.68,0,6.12,6.12,0,0,1,.66,0,1.92,1.92,0,0,1,.44.1.46.46,0,0,1,.23.17.41.41,0,0,1,.06.23v1.38c.35-.35.68-.66,1-.93a6.09,6.09,0,0,1,1-.67,4.27,4.27,0,0,1,1.06-.4,4.88,4.88,0,0,1,1.17-.13,4.44,4.44,0,0,1,2.2.5,4.11,4.11,0,0,1,1.48,1.39,6.46,6.46,0,0,1,.84,2.06A11.15,11.15,0,0,1,223.35,33Zm-3.45.24a9.55,9.55,0,0,0-.11-1.44,4.44,4.44,0,0,0-.39-1.23,2.35,2.35,0,0,0-.71-.87,1.84,1.84,0,0,0-1.1-.32,2.05,2.05,0,0,0-.65.1,2.23,2.23,0,0,0-.66.32,4.83,4.83,0,0,0-.69.58,7.92,7.92,0,0,0-.75.88V35.1a8,8,0,0,0,1.33,1.37,2.15,2.15,0,0,0,1.32.48,1.84,1.84,0,0,0,1.1-.33,2.52,2.52,0,0,0,.74-.87,4,4,0,0,0,.43-1.2A6.88,6.88,0,0,0,219.9,33.2Z"></path><path class="cls-2" d="M61.78,4.57c-8.26-9-28-4.3-44,10.47s-22.37,34-14.11,43,28,4.31,44.06-10.47S70.06,13.56,61.78,4.57ZM41.29,45.71c0,.33-.09.72-.16,1.15s-.17.86-.29,1.31a10.6,10.6,0,0,1-.41,1.24,3.38,3.38,0,0,1-.58.92,1,1,0,0,1-.73.36H20a2.83,2.83,0,0,1-.95-.15,1.51,1.51,0,0,1-.72-.48,2,2,0,0,1-.37-.83A3.63,3.63,0,0,1,18,48l7.6-37.89a1.06,1.06,0,0,1,.3-.57,1.88,1.88,0,0,1,.79-.42,6.59,6.59,0,0,1,1.36-.24c.54-.05,1.23-.08,2.07-.08s1.49,0,2,.08a5.42,5.42,0,0,1,1.26.24,1.07,1.07,0,0,1,.59.42.85.85,0,0,1,.08.57L27.39,43.7H40.54a.62.62,0,0,1,.62.35,2.08,2.08,0,0,1,.17.94C41.33,45.13,41.32,45.38,41.29,45.71Z"></path></svg> 